-
http:// www . torrentkit. com        
http:// www .torrentkit. com       the fast  and The Hottest Private Tracker on the net

Please Seed back to make the speed Faster!!!

and don't forget to visit      ...... www .torrentkit .com..........
-[img]http://img121.imageshack.us/img121/3662/mornings.jpg[/img]

[color=blue][size=5][b]Morning Glory 2010 BDRip XVID AC3 HQ Hive-CM8[/b][/size][/color]



[b]Thx Hive

CM8 Doing It Right The First Time :D

Why download a touched up rip of a rip BRrip
Get the real deal BDRip
Enjoy

Source Bluray

Video: 720x304 @bitrate 1700 2pass
Audio: DTS to AC3 5.1 @448
Sample: yes included
Subs: yes english in srt /subs[/b]
 
http://www.imdb.com/title/tt1126618/


General
Complete name                    : Morning.Glory.2010.BDRip.XVID.AC3.HQ.Hive-CM8.avi
Format                           : AVI
Format/Info                      : Audio Video Interleave
File size                        : 1.62 GiB
Duration                         : 1h 47mn
Overall bit rate                 : 2 158 Kbps
Writing application              : Nandub v1.0rc2
Writing library                  : Nandub build 1853/release

Video
ID                               : 0
Format                           : MPEG-4 Visual
Format profile                   : Advanced Simple@L5
Format settings, BVOP            : Yes
Format settings, QPel            : Yes
Format settings, GMC             : No warppoints
Format settings, Matrix          : Default (H.263)
Muxing mode                      : Packed bitstream
Codec ID                         : XVID
Codec ID/Hint                    : XviD
Duration                         : 1h 47mn
Bit rate                         : 1 700 Kbps
Width                            : 720 pixels
Height                           : 304 pixels
Display aspect ratio             : 2.40:1
Frame rate                       : 23.976 fps
Color space                      : YUV
Chroma subsampling               : 4:2:0
Bit depth                        : 8 bits
Scan type                        : Progressive
Bits/(Pixel*Frame)               : 0.324
Stream size                      : 1.28 GiB (79%)
Writing library                  : XviD 1.2.1 (UTC 2008-12-04)

Audio
ID                               : 1
Format                           : AC-3
Format/Info                      : Audio Coding 3
Mode extension                   : CM (complete main)
Codec ID                         : 2000
Duration                         : 1h 47mn
Bit rate mode                    : Constant
Bit rate                         : 448 Kbps
Channel(s)                       : 6 channels
Channel positions                : Front: L C R, Side: L R, LFE
Sampling rate                    : 48.0 KHz
Bit depth                        : 16 bits
Stream size                      : 344 MiB (21%)
Alignment                        : Split accross interleaves
Interleave, duration             : 42 ms (1.00 video frame)
Interleave, preload duration     : 500 ms




Rachel McAdams - 'Becky Fuller'
Patrick Wilson - 'Adam Bennett'
Harrison Ford - 'Mike Pomeroy'
Diane Keaton - 'Colleen Peck'
Jeff Goldblum - 'Jerry'



An upstart television producer accepts the challenge of reviving a 
struggling morning show program with warring co-hosts. 




[img]http://img189.imageshack.us/img189/1280/mommoo.png[/img]
[img]http://img132.imageshack.us/img132/6317/mommmomooo.png[/img]
[img]http://img716.imageshack.us/img716/6944/39925487.png[/img]
[img]http://img811.imageshack.us/img811/8805/mommmomomoomoo.png[/img]
[img]http://img202.imageshack.us/img202/2126/mommmooo.png[/img]
[img]http://img18.imageshack.us/img18/501/momob.png[/img]
[img]http://img171.imageshack.us/img171/7473/mommmomoomoo.png[/img]





Greetz

iNK,LUSi,,MAGNET,CLASSiFiED,THC,LEGi0N,T0XiC,IMAGiNE,ViSiON,WBZ,FLAWL3SS,NOVA
Vik,Rapeseed,D2U,SAFC,goldadvance,MEMORY100,KaN1vE,Unevano,Pinnz,Wayne,Mr Hive
and all P2P groups 
Great Work Guys :D

CM8@hushmail.com